<?xml version="1.0" standalone="no"?>
<!DOCTYPE svg PUBLIC "-//W3C//DTD SVG 20010904//EN"
 "http://www.w3.org/TR/2001/REC-SVG-20010904/DTD/svg10.dtd">
<svg version="1.0" xmlns="http://www.w3.org/2000/svg"
 width="86.000000pt" height="86.000000pt" viewBox="0 0 86.000000 86.000000"
 preserveAspectRatio="xMidYMid meet">
<metadata>
Created by potrace 1.14, written by Peter Selinger 2001-2017
</metadata>
<g transform="translate(0.000000,86.000000) scale(0.100000,-0.100000)"
fill="#000000" stroke="none">
<path d="M410 815 c-6 -7 -13 -20 -14 -27 -2 -7 -10 -29 -19 -49 -16 -35 -16
-55 -2 -91 5 -12 -3 -21 -29 -33 -37 -18 -63 -61 -87 -142 -8 -30 -25 -52 -65
-85 -58 -47 -63 -57 -36 -81 13 -12 17 -26 14 -46 -2 -16 1 -38 7 -50 11 -20
9 -21 -24 -21 -22 0 -35 -5 -35 -13 0 -19 651 -18 658 1 2 8 -8 12 -33 12 -33
0 -36 2 -29 22 4 13 7 35 6 50 0 15 6 32 14 39 25 21 15 44 -39 91 -45 39 -55
55 -75 116 -23 70 -49 103 -93 117 -15 5 -17 10 -9 25 15 27 12 73 -5 96 -8
10 -15 26 -15 35 0 39 -65 64 -90 34z m60 -24 c0 -6 -9 -9 -20 -8 -11 1 -20 5
-20 9 0 4 9 8 20 8 11 0 20 -4 20 -9z m12 -48 c36 -32 12 -113 -34 -113 -31 0
-58 36 -54 72 6 52 52 74 88 41z m66 -160 c16 -12 35 -45 52 -92 21 -59 35
-81 73 -115 26 -22 47 -44 47 -49 0 -19 -37 -3 -85 39 -52 44 -89 108 -90 156
0 10 -4 18 -10 18 -6 0 -11 -36 -13 -82 l-3 -83 -42 2 c-23 1 -56 2 -72 2
l-31 1 1 73 c1 39 0 78 -3 84 -6 19 -22 5 -22 -18 0 -41 -50 -124 -98 -161
-43 -35 -83 -49 -82 -30 1 4 23 25 51 47 42 34 52 50 71 108 24 73 55 114 91
119 61 9 140 0 165 -19z m-198 -192 c0 -12 -11 -23 -32 -30 l-32 -11 29 30
c34 35 35 36 35 11z m229 -13 l24 -30 -30 15 c-16 9 -30 23 -30 31 0 23 9 19
36 -16z m20 -54 c83 -31 105 -51 95 -89 -11 -44 -43 -51 -114 -25 -45 17 -58
26 -50 35 5 6 6 15 2 20 -4 4 4 5 18 1 68 -18 83 -19 78 -5 -2 7 -45 25 -95
40 l-90 26 -66 -20 c-40 -12 -67 -25 -67 -33 0 -17 -5 -17 61 2 30 9 61 18 69
19 19 3 50 -13 50 -25 0 -5 -8 -8 -17 -8 -10 1 -64 -16 -121 -36 -97 -37 -103
-38 -127 -22 -17 11 -25 26 -25 46 0 34 3 36 90 72 93 37 211 38 309 2z m-84
-119 c27 -12 21 -13 -70 -13 l-100 0 50 18 c51 19 66 18 120 -5z"/>
<path d="M8 114 c-4 -4 -1 -19 6 -33 8 -14 17 -34 20 -44 7 -21 26 -23 26 -2
0 9 7 29 15 45 17 33 3 52 -16 21 -12 -19 -13 -19 -28 1 -9 11 -19 16 -23 12z"/>
<path d="M107 102 c-22 -24 -21 -45 1 -65 35 -32 82 -10 82 38 0 42 -54 59
-83 27z m51 -38 c-5 -26 -25 -28 -33 -3 -5 14 -2 25 6 30 18 10 32 -4 27 -27z"/>
<path d="M216 101 c-36 -39 2 -92 54 -76 27 9 28 55 1 55 -11 0 -23 -4 -26
-10 -3 -5 -1 -10 4 -10 6 0 11 -4 11 -10 0 -5 -7 -7 -15 -4 -8 4 -15 14 -15
24 0 20 26 34 42 24 6 -4 9 -1 6 7 -7 22 -42 22 -62 0z"/>
<path d="M339 113 c-20 -5 -43 -73 -28 -88 7 -7 13 -5 19 5 8 13 13 13 31 2
29 -18 33 -10 19 35 -15 45 -20 51 -41 46z"/>
<path d="M447 102 c-22 -24 -21 -45 2 -66 21 -19 52 -18 58 1 3 7 -3 10 -15 6
-21 -5 -35 17 -26 42 4 10 13 13 26 9 15 -4 19 -2 16 7 -7 22 -42 22 -61 1z"/>
<path d="M529 108 c-6 -70 -2 -84 32 -86 21 -2 30 1 27 10 -3 7 -11 13 -19 13
-9 0 -14 11 -14 34 0 32 -24 58 -26 29z"/>
<path d="M615 83 c-20 -47 -14 -69 14 -51 15 9 23 9 35 -2 9 -7 19 -11 21 -8
7 7 -16 82 -29 90 -19 13 -25 9 -41 -29z"/>
<path d="M707 113 c-14 -14 -6 -45 13 -50 11 -3 20 -10 20 -15 0 -5 -9 -6 -20
-3 -11 3 -20 2 -20 -4 0 -16 19 -23 46 -17 30 8 33 45 4 53 -11 3 -20 10 -20
15 0 6 7 8 15 5 8 -4 17 -2 20 2 9 16 -44 28 -58 14z"/>
<path d="M794 103 c-15 -16 -15 -18 12 -41 26 -22 27 -24 7 -19 -13 3 -23 1
-23 -3 0 -15 20 -22 46 -16 30 8 33 42 4 51 -11 3 -20 11 -20 17 0 5 7 8 15 5
8 -4 17 -2 20 2 5 8 -17 21 -35 21 -5 0 -16 -8 -26 -17z"/>
</g>
</svg>
